HIERARCHY
ROOT Hips
{
	OFFSET 0.000000 0.000000 0.000000
	CHANNELS 6 Xposition Yposition Zposition Zrotation Yrotation Xrotation 
	JOINT LowerBack
	{
		OFFSET 0.000000 0.000000 0.000000
		CHANNELS 3 Zrotation Yrotation Xrotation
		JOINT Spine
		{
			OFFSET 0.028270 2.035590 -0.193380
			CHANNELS 3 Zrotation Yrotation Xrotation
			JOINT Spine1
			{
				OFFSET 0.056720 2.048850 -0.042750
				CHANNELS 3 Zrotation Yrotation Xrotation
				JOINT Neck
				{
					OFFSET 0.000000 0.000000 0.000000
					CHANNELS 3 Zrotation Yrotation Xrotation
					JOINT Neck1
					{
						OFFSET -0.054170 1.746240 0.172020
						CHANNELS 3 Zrotation Yrotation Xrotation
						JOINT Head
						{
							OFFSET 0.104070 1.761360 -0.123970
							CHANNELS 3 Zrotation Yrotation Xrotation
							End Site
							{
								OFFSET 0.000000 0.000000 0.000000
							}
						}
					}
				}
				JOINT LeftShoulder
				{
					OFFSET 0.000000 0.000000 0.000000
					CHANNELS 3 Zrotation Yrotation Xrotation
					JOINT LeftArm
					{
						OFFSET 3.362410 1.200890 -0.311210
						CHANNELS 3 Zrotation Yrotation Xrotation
						JOINT LeftForeArm
						{
							OFFSET 4.983000 -0.000000 -0.000000
							CHANNELS 3 Zrotation Yrotation Xrotation
							JOINT LeftHand
							{
								OFFSET 3.483560 -0.000000 -0.000000
								CHANNELS 3 Zrotation Yrotation Xrotation
								JOINT LeftFingerBase
								{
									OFFSET 0.000000 0.000000 0.000000
									CHANNELS 3 Zrotation Yrotation Xrotation
									JOINT LeftHandIndex1
									{
										OFFSET 0.715260 -0.000000 -0.000000
										CHANNELS 3 Zrotation Yrotation Xrotation
										End Site
										{
											OFFSET 0.000000 0.000000 0.000000
										}
									}
								}
								JOINT LThumb
								{
									OFFSET 0.000000 0.000000 0.000000
									CHANNELS 3 Zrotation Yrotation Xrotation
									End Site
									{
										OFFSET 0.000000 0.000000 0.000000
									}
								}
							}
						}
					}
				}
				JOINT RightShoulder
				{
					OFFSET 0.000000 0.000000 0.000000
					CHANNELS 3 Zrotation Yrotation Xrotation
					JOINT RightArm
					{
						OFFSET -3.136600 1.374050 -0.404650
						CHANNELS 3 Zrotation Yrotation Xrotation
						JOINT RightForeArm
						{
							OFFSET -5.241900 -0.000000 -0.000000
							CHANNELS 3 Zrotation Yrotation Xrotation
							JOINT RightHand
							{
								OFFSET -3.444170 -0.000000 -0.000000
								CHANNELS 3 Zrotation Yrotation Xrotation
								JOINT RightFingerBase
								{
									OFFSET 0.000000 0.000000 0.000000
									CHANNELS 3 Zrotation Yrotation Xrotation
									JOINT RightHandIndex1
									{
										OFFSET -0.622530 -0.000000 -0.000000
										CHANNELS 3 Zrotation Yrotation Xrotation
										End Site
										{
											OFFSET 0.000000 0.000000 0.000000
										}
									}
								}
								JOINT RThumb
								{
									OFFSET 0.000000 0.000000 0.000000
									CHANNELS 3 Zrotation Yrotation Xrotation
									End Site
									{
										OFFSET 0.000000 0.000000 0.000000
									}
								}
							}
						}
					}
				}
			}
		}
	}
}
}
MOTION
Frames: 17
Frame Time: 0.008333
-11.921138 17.175552 -1.121717 21.003564 87.992926 22.414265 -4.157384 0.734299 -4.089152 -1.378904 0.883276 -3.035598 -5.049231 0.821317 3.055760 8.282233 -13.695297 -10.720913 -1.514954 -0.081262 -0.787782 0.000000 0.000000 0.000000 -3.215181 28.594009 0.880058 -70.548153 24.137854 -12.780574 -4.790938 -17.647956 -0.020001 -4.658178 5.151754 -0.207180 -0.138293 -0.091747 -0.000000 0.000000 0.000000 0.000000 0.000000 0.000000 0.000000 9.280472 -7.656462 0.059533 51.325742 4.702339 -2.746973 2.807430 38.891904 0.018064 5.120003 4.941294 0.225134 0.057921 -0.130682 -0.000000 0.000000 0.000000 0.000000 0.000000 0.000000 0.000000 
-11.764966 17.165388 -1.123673 26.390588 88.041588 27.712597 -4.547407 0.568966 -4.038429 -1.451957 0.747587 -3.031665 -5.069724 0.684597 3.035241 8.372247 -13.687308 -10.749031 -1.527282 -0.081798 -0.796962 0.000000 0.000000 0.000000 -3.171040 28.487977 0.903552 -70.372363 23.841618 -12.703168 -4.793315 -17.563497 -0.020016 -4.618263 5.224112 -0.208179 -0.138294 -0.090586 -0.000000 0.000000 0.000000 0.000000 0.000000 0.000000 0.000000 9.410589 -7.687552 0.036655 51.629853 4.524898 -2.734650 2.801011 38.961249 0.018015 5.162947 4.917642 0.225934 0.057558 -0.129634 -0.000000 0.000000 0.000000 0.000000 0.000000 0.000000 0.000000 
-11.611046 17.156847 -1.124801 30.685123 88.054830 31.920198 -4.896173 0.415214 -3.980656 -1.518356 0.620276 -3.026003 -5.091240 0.556705 3.015178 8.443922 -13.681575 -10.768543 -1.540768 -0.082531 -0.803817 0.000000 0.000000 0.000000 -3.142091 28.368100 0.922082 -70.165138 23.476057 -12.601619 -4.791525 -17.481902 -0.019940 -4.536277 5.293804 -0.206977 -0.138314 -0.089197 -0.000000 0.000000 0.000000 0.000000 0.000000 0.000000 0.000000 9.523133 -7.720214 0.011739 51.980248 4.348526 -2.744671 2.796622 39.006189 0.017949 5.199177 4.881138 0.225836 0.057379 -0.128539 -0.000000 0.000000 0.000000 0.000000 0.000000 0.000000 0.000000 
-11.459412 17.150172 -1.125537 34.141436 88.046548 35.288371 -5.210328 0.271613 -3.914773 -1.578562 0.500547 -3.018035 -5.111922 0.436769 2.996703 8.496836 -13.684486 -10.779901 -1.554708 -0.083388 -0.808462 0.000000 0.000000 0.000000 -3.126061 28.236236 0.935766 -69.930239 23.035291 -12.478183 -4.785572 -17.398067 -0.019752 -4.406645 5.354192 -0.203073 -0.138384 -0.087518 -0.000000 0.000000 0.000000 0.000000 0.000000 0.000000 0.000000 9.617653 -7.762787 -0.015519 52.368542 4.171357 -2.763875 2.793730 39.030276 0.017856 5.226673 4.832319 0.224837 0.057363 -0.127359 -0.000000 0.000000 0.000000 0.000000 0.000000 0.000000 0.000000 
-11.310035 17.145529 -1.126346 36.914476 88.029298 37.966748 -5.489187 0.137096 -3.837133 -1.631958 0.387514 -3.006570 -5.130270 0.323983 2.981556 8.531642 -13.700475 -10.784804 -1.568305 -0.084264 -0.811383 0.000000 0.000000 0.000000 -3.119241 28.100107 0.945221 -69.672918 22.508899 -12.340064 -4.775606 -17.301890 -0.019430 -4.225995 5.397566 -0.195964 -0.138525 -0.085461 -0.000000 0.000000 0.000000 0.000000 0.000000 0.000000 0.000000 9.694351 -7.821084 -0.045414 52.782666 3.992601 -2.773354 2.791838 39.037195 0.017731 5.244399 4.775319 0.222937 0.057474 -0.126061 -0.000000 0.000000 0.000000 0.000000 0.000000 0.000000 0.000000 
-11.162867 17.143181 -1.127687 39.008406 88.000383 39.962853 -5.731064 0.014781 -3.752514 -1.678521 0.284095 -2.994147 -5.147299 0.221100 2.963384 8.549659 -13.727033 -10.779675 -1.582973 -0.085360 -0.811444 0.000000 0.000000 0.000000 -3.138269 27.933383 0.948490 -69.389477 21.937722 -12.173932 -4.760766 -17.234838 -0.018972 -3.998634 5.415626 -0.185554 -0.138644 -0.083225 -0.000000 0.000000 0.000000 0.000000 0.000000 0.000000 0.000000 9.756991 -7.889793 -0.074514 53.210891 3.793269 -2.769995 2.791362 39.045163 0.017576 5.261211 4.702102 0.220237 0.057668 -0.124580 -0.000000 0.000000 0.000000 0.000000 0.000000 0.000000 0.000000 
-11.017844 17.143034 -1.129957 40.532784 87.973223 41.374620 -5.933230 -0.098084 -3.650941 -1.717198 0.187741 -2.976881 -5.160970 0.125902 2.950136 8.555164 -13.771189 -10.771687 -1.596718 -0.086365 -0.810782 0.000000 0.000000 0.000000 -3.164015 27.774213 0.948057 -69.093084 21.272795 -11.999671 -4.742264 -17.148587 -0.018352 -3.723240 5.399331 -0.171740 -0.138817 -0.080553 -0.000000 0.000000 0.000000 0.000000 0.000000 0.000000 0.000000 9.808892 -7.978704 -0.105245 53.635256 3.590064 -2.714792 2.791467 39.046213 0.017386 5.271667 4.628396 0.217236 0.057904 -0.122887 -0.000000 0.000000 0.000000 0.000000 0.000000 0.000000 0.000000 
-10.874877 17.145287 -1.133514 41.371172 87.937017 42.091937 -6.094476 -0.197470 -3.540129 -1.748195 0.102205 -2.958314 -5.173109 0.041868 2.933890 8.550299 -13.825069 -10.756264 -1.611525 -0.087549 -0.807962 0.000000 0.000000 0.000000 -3.215734 27.592066 0.941881 -68.778014 20.566534 -11.796648 -4.719396 -17.093696 -0.017585 -3.409803 5.340999 -0.154924 -0.138933 -0.077725 -0.000000 0.000000 0.000000 0.000000 0.000000 0.000000 0.000000 9.854591 -8.075827 -0.133528 54.044906 3.362523 -2.608117 2.792924 39.058353 0.017173 5.288106 4.546755 0.214033 0.058121 -0.120931 -0.000000 0.000000 0.000000 0.000000 0.000000 0.000000 0.000000 
-10.733905 17.149808 -1.138566 41.563409 87.897114 42.147881 -6.214137 -0.285377 -3.414329 -1.771058 0.025664 -2.936022 -5.182712 -0.032632 2.920134 8.539906 -13.891489 -10.738776 -1.626224 -0.088710 -0.804582 0.000000 0.000000 0.000000 -3.280219 27.415040 0.931823 -68.454883 19.786892 -11.579770 -4.693425 -17.037596 -0.016671 -3.063969 5.236186 -0.135705 -0.139040 -0.074586 -0.000000 0.000000 0.000000 0.000000 0.000000 0.000000 0.000000 9.898787 -8.185601 -0.160879 54.425024 3.125159 -2.419621 2.795365 39.074222 0.016935 5.309478 4.469311 0.211229 0.058271 -0.118678 -0.000000 0.000000 0.000000 0.000000 0.000000 0.000000 0.000000 
-10.594821 17.156546 -1.145270 41.064217 87.848424 41.498458 -6.292673 -0.361320 -3.275479 -1.785942 -0.041391 -2.910892 -5.190461 -0.097198 2.907130 8.526635 -13.964409 -10.718613 -1.641497 -0.089920 -0.800454 0.000000 0.000000 0.000000 -3.359879 27.239502 0.918098 -68.126035 18.948194 -11.347647 -4.664930 -16.990594 -0.015634 -2.697213 5.084106 -0.115184 -0.139114 -0.071215 -0.000000 0.000000 0.000000 0.000000 0.000000 0.000000 0.000000 9.944968 -8.300868 -0.186242 54.767520 2.874243 -2.144179 2.799110 39.097570 0.016683 5.343809 4.396995 0.209223 0.058281 -0.116095 -0.000000 0.000000 0.000000 0.000000 0.000000 0.000000 0.000000 
-10.457553 17.165516 -1.153604 39.808938 87.780234 40.083617 -6.331474 -0.423968 -3.129184 -1.793251 -0.097641 -2.884854 -5.197208 -0.150697 2.891832 8.512012 -14.039059 -10.693931 -1.658131 -0.091290 -0.794994 0.000000 0.000000 0.000000 -3.460855 27.054051 0.900225 -67.790466 18.077014 -11.085964 -4.634184 -16.972863 -0.014504 -2.320689 4.886393 -0.094359 -0.139112 -0.067778 -0.000000 0.000000 0.000000 0.000000 0.000000 0.000000 0.000000 9.995259 -8.415496 -0.208045 55.067491 2.609638 -1.777703 2.804632 39.128217 0.016421 5.394886 4.331009 0.208016 0.058138 -0.113183 -0.000000 0.000000 0.000000 0.000000 0.000000 0.000000 0.000000 
-10.321980 17.176503 -1.163490 37.875391 87.690639 37.979391 -6.332409 -0.475059 -2.973650 -1.793271 -0.144638 -2.857040 -5.202751 -0.194619 2.876843 8.498098 -14.112808 -10.666569 -1.675682 -0.092742 -0.788785 0.000000 0.000000 0.000000 -3.573151 26.871712 0.879829 -67.455492 17.161559 -10.808673 -4.602615 -16.967196 -0.013322 -1.945934 4.652112 -0.074334 -0.139078 -0.064208 -0.000000 0.000000 0.000000 0.000000 0.000000 0.000000 0.000000 10.050948 -8.528070 -0.227441 55.323268 2.339451 -1.318386 2.811867 39.159565 0.016153 5.466250 4.275359 0.208008 0.057782 -0.109934 -0.000000 0.000000 0.000000 0.000000 0.000000 0.000000 0.000000 
-10.188037 17.189311 -1.174718 35.305028 87.571227 35.230494 -6.296592 -0.514359 -2.812748 -1.786334 -0.182182 -2.828591 -5.207615 -0.228868 2.861148 8.484968 -14.181608 -10.635204 -1.694403 -0.094326 -0.781438 0.000000 0.000000 0.000000 -3.695317 26.687876 0.857293 -67.122403 16.216405 -10.511996 -4.570917 -16.979688 -0.012134 -1.583543 4.392778 -0.056108 -0.139010 -0.060586 -0.000000 0.000000 0.000000 0.000000 0.000000 0.000000 0.000000 10.111469 -8.634424 -0.244219 55.537473 2.066564 -0.774330 2.820990 39.187990 0.015879 5.560284 4.229924 0.209196 0.057199 -0.106370 -0.000000 0.000000 0.000000 0.000000 0.000000 0.000000 0.000000 
-10.055530 17.203760 -1.187028 32.200522 87.417646 31.942413 -6.223468 -0.542339 -2.648893 -1.772417 -0.210885 -2.800128 -5.212275 -0.254108 2.844760 8.472068 -14.240967 -10.598922 -1.714425 -0.096068 -0.772708 0.000000 0.000000 0.000000 -3.821703 26.501432 0.833614 -66.794125 15.248532 -10.200291 -4.540014 -17.009775 -0.010988 -1.244529 4.124065 -0.040281 -0.138925 -0.056936 -0.000000 0.000000 0.000000 0.000000 0.000000 0.000000 0.000000 10.175372 -8.730355 -0.258783 55.716711 1.790794 -0.165035 2.832073 39.211549 0.015597 5.681351 4.191482 0.211783 0.056349 -0.102513 -0.000000 0.000000 0.000000 0.000000 0.000000 0.000000 0.000000 
-9.924358 17.219549 -1.200154 28.647108 87.227544 28.205288 -6.109006 -0.559835 -2.486356 -1.750536 -0.231975 -2.772688 -5.216496 -0.271689 2.827058 8.457309 -14.293877 -10.556631 -1.735231 -0.097952 -0.762226 0.000000 0.000000 0.000000 -3.950871 26.302909 0.809014 -66.471449 14.276135 -9.868455 -4.510162 -17.066361 -0.009927 -0.935488 3.860602 -0.027055 -0.138822 -0.053333 -0.000000 0.000000 0.000000 0.000000 0.000000 0.000000 0.000000 10.238127 -8.820464 -0.270871 55.866711 1.523510 0.504809 2.845192 39.219159 0.015303 5.820952 4.162760 0.215370 0.055335 -0.098435 -0.000000 0.000000 0.000000 0.000000 0.000000 0.000000 0.000000 
-9.794339 17.236324 -1.213825 24.773709 87.005871 24.151220 -5.948695 -0.568920 -2.326819 -1.719682 -0.247904 -2.746454 -5.220387 -0.284102 2.808721 8.439337 -14.339948 -10.508032 -1.756494 -0.099960 -0.749907 0.000000 0.000000 0.000000 -4.075408 26.090399 0.784663 -66.156750 13.304495 -9.521947 -4.481959 -17.148955 -0.008994 -0.663839 3.619592 -0.016630 -0.138721 -0.049767 -0.000000 0.000000 0.000000 0.000000 0.000000 0.000000 0.000000 10.296595 -8.905711 -0.281139 55.996782 1.264839 1.210992 2.860170 39.209791 0.014992 5.979190 4.138820 0.219855 0.054157 -0.094174 -0.000000 0.000000 0.000000 0.000000 0.000000 0.000000 0.000000 
-9.665288 17.253680 -1.227789 20.660489 86.762324 19.864112 -5.736353 -0.573050 -2.172028 -1.678252 -0.262554 -2.721527 -5.223284 -0.295306 2.790266 8.416059 -14.384966 -10.453232 -1.777318 -0.102021 -0.735741 0.000000 0.000000 0.000000 -4.190238 25.856909 0.761323 -65.852320 12.344589 -9.160023 -4.455429 -17.262362 -0.008216 -0.432988 3.413537 -0.008706 -0.138631 -0.046241 -0.000000 0.000000 0.000000 0.000000 0.000000 0.000000 0.000000 10.345784 -8.994725 -0.289824 56.114050 1.024374 1.943994 2.876785 39.175116 0.014659 6.145869 4.120890 0.224838 0.052921 -0.089804 -0.000000 0.000000 0.000000 0.000000 0.000000 0.000000 0.000000 
